<svg xmlns="http://www.w3.org/2000/svg" version="1.1" xmlns:xlink="http://www.w3.org/1999/xlink" xmlns:svgjs="http://svgjs.com/svgjs" width="1920" height="1080" preserveAspectRatio="none" viewBox="0 0 1920 1080"><g mask="url(&quot;#SvgjsMask1378&quot;)" fill="none"><rect width="1920" height="1080" x="0" y="0" fill="rgba(230, 242, 255, 1)"></rect><use xlink:href="#SvgjsG1382" transform="translate(0, 0)" fill="rgba(221, 106, 18, 1)"></use><use xlink:href="#SvgjsG1382" transform="translate(0, 480)" fill="rgba(221, 106, 18, 1)"></use><use xlink:href="#SvgjsG1382" transform="translate(0, 960)" fill="rgba(221, 106, 18, 1)"></use><use xlink:href="#SvgjsG1382" transform="translate(480, 0)" fill="rgba(221, 106, 18, 1)"></use><use xlink:href="#SvgjsG1382" transform="translate(480, 480)" fill="rgba(221, 106, 18, 1)"></use><use xlink:href="#SvgjsG1382" transform="translate(480, 960)" fill="rgba(221, 106, 18, 1)"></use><use xlink:href="#SvgjsG1382" transform="translate(960, 0)" fill="rgba(221, 106, 18, 1)"></use><use xlink:href="#SvgjsG1382" transform="translate(960, 480)" fill="rgba(221, 106, 18, 1)"></use><use xlink:href="#SvgjsG1382" transform="translate(960, 960)" fill="rgba(221, 106, 18, 1)"></use><use xlink:href="#SvgjsG1382" transform="translate(1440, 0)" fill="rgba(221, 106, 18, 1)"></use><use xlink:href="#SvgjsG1382" transform="translate(1440, 480)" fill="rgba(221, 106, 18, 1)"></use><use xlink:href="#SvgjsG1382" transform="translate(1440, 960)" fill="rgba(221, 106, 18, 1)"></use></g><defs><mask id="SvgjsMask1378"><rect width="1920" height="1080" fill="#ffffff"></rect></mask><g id="SvgjsG1381"><path d="M3.474 10.969C3.474 7.665 8.077 0.361 8.077 0.361s4.602 7.305 4.602 10.608c0 2.247-1.506 4.771-4.602 4.771-3.095 0-4.603-2.524-4.603-4.771z" fill-rule="evenodd"></path></g><g id="SvgjsG1379"><path d="M7.713 15.485C3.459 15.485 0 12.025 0 7.768 0 3.513 3.459 0.051 7.713 0.051S15.432 3.513 15.432 7.768c0 4.257-3.465 7.716-7.719 7.717z m0-1.91c3.201 0 5.81-2.604 5.81-5.809 0-3.199-2.61-5.807-5.81-5.807-3.202 0-5.804 2.609-5.804 5.807-0.001 3.206 2.602 5.809 5.804 5.809z"></path><path d="M7.753 8.787a0.574 0.574 0 0 1-0.554-0.042 0.578 0.578 0 0 1-0.259-0.399L6.931 3.862a0.58 0.58 0 0 1 1.162 0v3.478l2.975-1.4a0.578 0.578 0 0 1 0.773 0.275c0.138 0.292 0.011 0.637-0.276 0.774l-3.81 1.798z"></path></g><g id="SvgjsG1380"><path d="M13.828 10.843V16H9.151V13.513c0-1.275-1.154-1.693-1.154-1.693s-1.154 0.418-1.154 1.693V16H2.24V10.843l3.881-1.874V3.994L8.032 0l1.914 3.994v4.975L13.828 10.843zM7.374 5.885v1.052h1.311v-1.053c0-1.056-0.656-1.402-0.656-1.401s-0.655 0.346-0.655 1.401z"></path></g><g id="SvgjsG1382"><use xlink:href="#SvgjsG1379" transform="translate(0, 0) scale(2)" fill="rgba(221, 106, 18, 1)"></use><use xlink:href="#SvgjsG1380" transform="translate(0, 48) scale(2)" fill="rgba(221, 106, 18, 1)"></use><use xlink:href="#SvgjsG1379" transform="translate(0, 96) scale(2)" fill="rgba(221, 106, 18, 1)"></use><use xlink:href="#SvgjsG1381" transform="translate(0, 144) scale(2)" fill="rgba(221, 106, 18, 1)"></use><use xlink:href="#SvgjsG1381" transform="translate(0, 192) scale(2)" fill="rgba(221, 106, 18, 1)"></use><use xlink:href="#SvgjsG1381" transform="translate(0, 240) scale(2)" fill="rgba(221, 106, 18, 1)"></use><use xlink:href="#SvgjsG1380" transform="translate(0, 288) scale(2)" fill="rgba(221, 106, 18, 1)"></use><use xlink:href="#SvgjsG1380" transform="translate(0, 336) scale(2)" fill="rgba(221, 106, 18, 1)"></use><use xlink:href="#SvgjsG1381" transform="translate(0, 384) scale(2)" fill="rgba(221, 106, 18, 1)"></use><use xlink:href="#SvgjsG1381" transform="translate(0, 432) scale(2)" fill="rgba(221, 106, 18, 1)"></use><use xlink:href="#SvgjsG1380" transform="translate(48, 0) scale(2)" fill="rgba(221, 106, 18, 1)"></use><use xlink:href="#SvgjsG1379" transform="translate(48, 48) scale(2)" fill="rgba(221, 106, 18, 1)"></use><use xlink:href="#SvgjsG1380" transform="translate(48, 96) scale(2)" fill="rgba(221, 106, 18, 1)"></use><use xlink:href="#SvgjsG1379" transform="translate(48, 144) scale(2)" fill="rgba(221, 106, 18, 1)"></use><use xlink:href="#SvgjsG1381" transform="translate(48, 192) scale(2)" fill="rgba(221, 106, 18, 1)"></use><use xlink:href="#SvgjsG1380" transform="translate(48, 240) scale(2)" fill="rgba(221, 106, 18, 1)"></use><use xlink:href="#SvgjsG1379" transform="translate(48, 288) scale(2)" fill="rgba(221, 106, 18, 1)"></use><use xlink:href="#SvgjsG1379" transform="translate(48, 336) scale(2)" fill="rgba(221, 106, 18, 1)"></use><use xlink:href="#SvgjsG1380" transform="translate(48, 384) scale(2)" fill="rgba(221, 106, 18, 1)"></use><use xlink:href="#SvgjsG1379" transform="translate(48, 432) scale(2)" fill="rgba(221, 106, 18, 1)"></use><use xlink:href="#SvgjsG1380" transform="translate(96, 0) scale(2)" fill="rgba(221, 106, 18, 1)"></use><use xlink:href="#SvgjsG1381" transform="translate(96, 48) scale(2)" fill="rgba(221, 106, 18, 1)"></use><use xlink:href="#SvgjsG1379" transform="translate(96, 96) scale(2)" fill="rgba(221, 106, 18, 1)"></use><use xlink:href="#SvgjsG1380" transform="translate(96, 144) scale(2)" fill="rgba(221, 106, 18, 1)"></use><use xlink:href="#SvgjsG1381" transform="translate(96, 192) scale(2)" fill="rgba(221, 106, 18, 1)"></use><use xlink:href="#SvgjsG1379" transform="translate(96, 240) scale(2)" fill="rgba(221, 106, 18, 1)"></use><use xlink:href="#SvgjsG1379" transform="translate(96, 288) scale(2)" fill="rgba(221, 106, 18, 1)"></use><use xlink:href="#SvgjsG1381" transform="translate(96, 336) scale(2)" fill="rgba(221, 106, 18, 1)"></use><use xlink:href="#SvgjsG1379" transform="translate(96, 384) scale(2)" fill="rgba(221, 106, 18, 1)"></use><use xlink:href="#SvgjsG1380" transform="translate(96, 432) scale(2)" fill="rgba(221, 106, 18, 1)"></use><use xlink:href="#SvgjsG1380" transform="translate(144, 0) scale(2)" fill="rgba(221, 106, 18, 1)"></use><use xlink:href="#SvgjsG1379" transform="translate(144, 48) scale(2)" fill="rgba(221, 106, 18, 1)"></use><use xlink:href="#SvgjsG1381" transform="translate(144, 96) scale(2)" fill="rgba(221, 106, 18, 1)"></use><use xlink:href="#SvgjsG1379" transform="translate(144, 144) scale(2)" fill="rgba(221, 106, 18, 1)"></use><use xlink:href="#SvgjsG1380" transform="translate(144, 192) scale(2)" fill="rgba(221, 106, 18, 1)"></use><use xlink:href="#SvgjsG1379" transform="translate(144, 240) scale(2)" fill="rgba(221, 106, 18, 1)"></use><use xlink:href="#SvgjsG1380" transform="translate(144, 288) scale(2)" fill="rgba(221, 106, 18, 1)"></use><use xlink:href="#SvgjsG1379" transform="translate(144, 336) scale(2)" fill="rgba(221, 106, 18, 1)"></use><use xlink:href="#SvgjsG1380" transform="translate(144, 384) scale(2)" fill="rgba(221, 106, 18, 1)"></use><use xlink:href="#SvgjsG1379" transform="translate(144, 432) scale(2)" fill="rgba(221, 106, 18, 1)"></use><use xlink:href="#SvgjsG1379" transform="translate(192, 0) scale(2)" fill="rgba(221, 106, 18, 1)"></use><use xlink:href="#SvgjsG1380" transform="translate(192, 48) scale(2)" fill="rgba(221, 106, 18, 1)"></use><use xlink:href="#SvgjsG1381" transform="translate(192, 96) scale(2)" fill="rgba(221, 106, 18, 1)"></use><use xlink:href="#SvgjsG1380" transform="translate(192, 144) scale(2)" fill="rgba(221, 106, 18, 1)"></use><use xlink:href="#SvgjsG1381" transform="translate(192, 192) scale(2)" fill="rgba(221, 106, 18, 1)"></use><use xlink:href="#SvgjsG1380" transform="translate(192, 240) scale(2)" fill="rgba(221, 106, 18, 1)"></use><use xlink:href="#SvgjsG1379" transform="translate(192, 288) scale(2)" fill="rgba(221, 106, 18, 1)"></use><use xlink:href="#SvgjsG1379" transform="translate(192, 336) scale(2)" fill="rgba(221, 106, 18, 1)"></use><use xlink:href="#SvgjsG1379" transform="translate(192, 384) scale(2)" fill="rgba(221, 106, 18, 1)"></use><use xlink:href="#SvgjsG1381" transform="translate(192, 432) scale(2)" fill="rgba(221, 106, 18, 1)"></use><use xlink:href="#SvgjsG1379" transform="translate(240, 0) scale(2)" fill="rgba(221, 106, 18, 1)"></use><use xlink:href="#SvgjsG1381" transform="translate(240, 48) scale(2)" fill="rgba(221, 106, 18, 1)"></use><use xlink:href="#SvgjsG1381" transform="translate(240, 96) scale(2)" fill="rgba(221, 106, 18, 1)"></use><use xlink:href="#SvgjsG1381" transform="translate(240, 144) scale(2)" fill="rgba(221, 106, 18, 1)"></use><use xlink:href="#SvgjsG1380" transform="translate(240, 192) scale(2)" fill="rgba(221, 106, 18, 1)"></use><use xlink:href="#SvgjsG1379" transform="translate(240, 240) scale(2)" fill="rgba(221, 106, 18, 1)"></use><use xlink:href="#SvgjsG1380" transform="translate(240, 288) scale(2)" fill="rgba(221, 106, 18, 1)"></use><use xlink:href="#SvgjsG1379" transform="translate(240, 336) scale(2)" fill="rgba(221, 106, 18, 1)"></use><use xlink:href="#SvgjsG1380" transform="translate(240, 384) scale(2)" fill="rgba(221, 106, 18, 1)"></use><use xlink:href="#SvgjsG1379" transform="translate(240, 432) scale(2)" fill="rgba(221, 106, 18, 1)"></use><use xlink:href="#SvgjsG1381" transform="translate(288, 0) scale(2)" fill="rgba(221, 106, 18, 1)"></use><use xlink:href="#SvgjsG1381" transform="translate(288, 48) scale(2)" fill="rgba(221, 106, 18, 1)"></use><use xlink:href="#SvgjsG1380" transform="translate(288, 96) scale(2)" fill="rgba(221, 106, 18, 1)"></use><use xlink:href="#SvgjsG1380" transform="translate(288, 144) scale(2)" fill="rgba(221, 106, 18, 1)"></use><use xlink:href="#SvgjsG1380" transform="translate(288, 192) scale(2)" fill="rgba(221, 106, 18, 1)"></use><use xlink:href="#SvgjsG1380" transform="translate(288, 240) scale(2)" fill="rgba(221, 106, 18, 1)"></use><use xlink:href="#SvgjsG1380" transform="translate(288, 288) scale(2)" fill="rgba(221, 106, 18, 1)"></use><use xlink:href="#SvgjsG1381" transform="translate(288, 336) scale(2)" fill="rgba(221, 106, 18, 1)"></use><use xlink:href="#SvgjsG1379" transform="translate(288, 384) scale(2)" fill="rgba(221, 106, 18, 1)"></use><use xlink:href="#SvgjsG1381" transform="translate(288, 432) scale(2)" fill="rgba(221, 106, 18, 1)"></use><use xlink:href="#SvgjsG1379" transform="translate(336, 0) scale(2)" fill="rgba(221, 106, 18, 1)"></use><use xlink:href="#SvgjsG1380" transform="translate(336, 48) scale(2)" fill="rgba(221, 106, 18, 1)"></use><use xlink:href="#SvgjsG1380" transform="translate(336, 96) scale(2)" fill="rgba(221, 106, 18, 1)"></use><use xlink:href="#SvgjsG1380" transform="translate(336, 144) scale(2)" fill="rgba(221, 106, 18, 1)"></use><use xlink:href="#SvgjsG1379" transform="translate(336, 192) scale(2)" fill="rgba(221, 106, 18, 1)"></use><use xlink:href="#SvgjsG1381" transform="translate(336, 240) scale(2)" fill="rgba(221, 106, 18, 1)"></use><use xlink:href="#SvgjsG1380" transform="translate(336, 288) scale(2)" fill="rgba(221, 106, 18, 1)"></use><use xlink:href="#SvgjsG1381" transform="translate(336, 336) scale(2)" fill="rgba(221, 106, 18, 1)"></use><use xlink:href="#SvgjsG1381" transform="translate(336, 384) scale(2)" fill="rgba(221, 106, 18, 1)"></use><use xlink:href="#SvgjsG1379" transform="translate(336, 432) scale(2)" fill="rgba(221, 106, 18, 1)"></use><use xlink:href="#SvgjsG1381" transform="translate(384, 0) scale(2)" fill="rgba(221, 106, 18, 1)"></use><use xlink:href="#SvgjsG1380" transform="translate(384, 48) scale(2)" fill="rgba(221, 106, 18, 1)"></use><use xlink:href="#SvgjsG1381" transform="translate(384, 96) scale(2)" fill="rgba(221, 106, 18, 1)"></use><use xlink:href="#SvgjsG1380" transform="translate(384, 144) scale(2)" fill="rgba(221, 106, 18, 1)"></use><use xlink:href="#SvgjsG1381" transform="translate(384, 192) scale(2)" fill="rgba(221, 106, 18, 1)"></use><use xlink:href="#SvgjsG1379" transform="translate(384, 240) scale(2)" fill="rgba(221, 106, 18, 1)"></use><use xlink:href="#SvgjsG1380" transform="translate(384, 288) scale(2)" fill="rgba(221, 106, 18, 1)"></use><use xlink:href="#SvgjsG1381" transform="translate(384, 336) scale(2)" fill="rgba(221, 106, 18, 1)"></use><use xlink:href="#SvgjsG1379" transform="translate(384, 384) scale(2)" fill="rgba(221, 106, 18, 1)"></use><use xlink:href="#SvgjsG1379" transform="translate(384, 432) scale(2)" fill="rgba(221, 106, 18, 1)"></use><use xlink:href="#SvgjsG1380" transform="translate(432, 0) scale(2)" fill="rgba(221, 106, 18, 1)"></use><use xlink:href="#SvgjsG1380" transform="translate(432, 48) scale(2)" fill="rgba(221, 106, 18, 1)"></use><use xlink:href="#SvgjsG1380" transform="translate(432, 96) scale(2)" fill="rgba(221, 106, 18, 1)"></use><use xlink:href="#SvgjsG1379" transform="translate(432, 144) scale(2)" fill="rgba(221, 106, 18, 1)"></use><use xlink:href="#SvgjsG1380" transform="translate(432, 192) scale(2)" fill="rgba(221, 106, 18, 1)"></use><use xlink:href="#SvgjsG1381" transform="translate(432, 240) scale(2)" fill="rgba(221, 106, 18, 1)"></use><use xlink:href="#SvgjsG1379" transform="translate(432, 288) scale(2)" fill="rgba(221, 106, 18, 1)"></use><use xlink:href="#SvgjsG1381" transform="translate(432, 336) scale(2)" fill="rgba(221, 106, 18, 1)"></use><use xlink:href="#SvgjsG1381" transform="translate(432, 384) scale(2)" fill="rgba(221, 106, 18, 1)"></use><use xlink:href="#SvgjsG1379" transform="translate(432, 432) scale(2)" fill="rgba(221, 106, 18, 1)"></use></g></defs></svg>