<svg xmlns="http://www.w3.org/2000/svg" version="1.1" xmlns:xlink="http://www.w3.org/1999/xlink" xmlns:svgjs="http://svgjs.com/svgjs" width="1440" height="560" preserveAspectRatio="none" viewBox="0 0 1440 560"><g mask="url(&quot;#SvgjsMask1159&quot;)" fill="none"><g transform="translate(-28.8, -5.6)" stroke-linecap="round"><path d="M100 112.37 L100 262.37" stroke-width="30" stroke="rgba(180, 213, 250, 1)"></path><path d="M100 307.37 L100 367.37" stroke-width="30" stroke="rgba(180, 213, 250, 1)"></path><path d="M100 412.37 L100 447.63" stroke-width="30" stroke="rgba(180, 213, 250, 1)"></path><path d="M140 169.36 L140 199.36" stroke-width="30" stroke="rgba(180, 213, 250, 1)"></path><path d="M140 244.36 L140 274.36" stroke-width="30" stroke="rgba(180, 213, 250, 1)"></path><path d="M140 319.36 L140 390.64" stroke-width="30" stroke="rgba(180, 213, 250, 1)"></path><path d="M180 142.9 L180 262.9" stroke-width="30" stroke="rgba(180, 213, 250, 1)"></path><path d="M180 307.9 L180 337.9" stroke-width="30" stroke="rgba(180, 213, 250, 1)"></path><path d="M180 382.9 L180 417.1" stroke-width="30" stroke="rgba(180, 213, 250, 1)"></path><path d="M220 162.92 L220 222.92" stroke-width="30" stroke="rgba(180, 213, 250, 1)"></path><path d="M220 267.91999999999996 L220 297.91999999999996" stroke-width="30" stroke="rgba(180, 213, 250, 1)"></path><path d="M220 342.91999999999996 L220 397.08" stroke-width="30" stroke="rgba(180, 213, 250, 1)"></path><path d="M260 63.07 L260 123.07" stroke-width="30" stroke="rgba(180, 213, 250, 1)"></path><path d="M260 168.07 L260 348.07" stroke-width="30" stroke="rgba(180, 213, 250, 1)"></path><path d="M260 393.07 L260 496.93" stroke-width="30" stroke="rgba(180, 213, 250, 1)"></path><path d="M300 218.33 L300 248.33" stroke-width="30" stroke="rgba(180, 213, 250, 1)"></path><path d="M300 293.33000000000004 L300 341.67" stroke-width="30" stroke="rgba(180, 213, 250, 1)"></path><path d="M340 85.34 L340 115.34" stroke-width="30" stroke="rgba(180, 213, 250, 1)"></path><path d="M340 160.34 L340 220.34" stroke-width="30" stroke="rgba(180, 213, 250, 1)"></path><path d="M340 265.34000000000003 L340 474.65" stroke-width="30" stroke="rgba(180, 213, 250, 1)"></path><path d="M380 253.66 L380 306.33" stroke-width="30" stroke="rgba(180, 213, 250, 1)"></path><path d="M420 123.21 L420 243.20999999999998" stroke-width="30" stroke="rgba(180, 213, 250, 1)"></path><path d="M420 288.21 L420 436.79" stroke-width="30" stroke="rgba(180, 213, 250, 1)"></path><path d="M460 181.89 L460 271.89" stroke-width="30" stroke="rgba(180, 213, 250, 1)"></path><path d="M460 316.89 L460 378.11" stroke-width="30" stroke="rgba(180, 213, 250, 1)"></path><path d="M500 185.07 L500 275.07" stroke-width="30" stroke="rgba(180, 213, 250, 1)"></path><path d="M500 320.07 L500 374.93" stroke-width="30" stroke="rgba(180, 213, 250, 1)"></path><path d="M540 123.9 L540 303.9" stroke-width="30" stroke="rgba(180, 213, 250, 1)"></path><path d="M540 348.9 L540 436.11" stroke-width="30" stroke="rgba(180, 213, 250, 1)"></path><path d="M580 258.65999999999997 L580 301.33" stroke-width="30" stroke="rgba(180, 213, 250, 1)"></path><path d="M620 242.36 L620 317.64" stroke-width="30" stroke="rgba(180, 213, 250, 1)"></path><path d="M660 206.82 L660 236.82" stroke-width="30" stroke="rgba(180, 213, 250, 1)"></path><path d="M660 281.82 L660 353.18" stroke-width="30" stroke="rgba(180, 213, 250, 1)"></path><path d="M700 254.68 L700 305.32" stroke-width="30" stroke="rgba(180, 213, 250, 1)"></path><path d="M740 183.06 L740 273.06" stroke-width="30" stroke="rgba(180, 213, 250, 1)"></path><path d="M740 318.06 L740 376.94" stroke-width="30" stroke="rgba(180, 213, 250, 1)"></path><path d="M780 193.89 L780 223.89" stroke-width="30" stroke="rgba(180, 213, 250, 1)"></path><path d="M780 268.89 L780 366.11" stroke-width="30" stroke="rgba(180, 213, 250, 1)"></path><path d="M820 220.75 L820 339.25" stroke-width="30" stroke="rgba(180, 213, 250, 1)"></path><path d="M860 92.95 L860 467.05" stroke-width="30" stroke="rgba(180, 213, 250, 1)"></path><path d="M900 91 L900 469" stroke-width="30" stroke="rgba(180, 213, 250, 1)"></path><path d="M940 264.06 L940 295.94" stroke-width="30" stroke="rgba(180, 213, 250, 1)"></path><path d="M980 247.62 L980 312.38" stroke-width="30" stroke="rgba(180, 213, 250, 1)"></path><path d="M1020 175.38 L1020 384.62" stroke-width="30" stroke="rgba(180, 213, 250, 1)"></path><path d="M1060 191.47 L1060 221.47" stroke-width="30" stroke="rgba(180, 213, 250, 1)"></path><path d="M1060 266.47 L1060 368.53" stroke-width="30" stroke="rgba(180, 213, 250, 1)"></path><path d="M1100 164.72 L1100 224.72" stroke-width="30" stroke="rgba(180, 213, 250, 1)"></path><path d="M1100 269.72 L1100 395.28" stroke-width="30" stroke="rgba(180, 213, 250, 1)"></path><path d="M1140 112.22 L1140 202.22" stroke-width="30" stroke="rgba(180, 213, 250, 1)"></path><path d="M1140 247.22 L1140 307.22" stroke-width="30" stroke="rgba(180, 213, 250, 1)"></path><path d="M1140 352.22 L1140 447.78" stroke-width="30" stroke="rgba(180, 213, 250, 1)"></path><path d="M1180 222.4 L1180 337.6" stroke-width="30" stroke="rgba(180, 213, 250, 1)"></path><path d="M1220 147.12 L1220 237.12" stroke-width="30" stroke="rgba(180, 213, 250, 1)"></path><path d="M1220 282.12 L1220 412.88" stroke-width="30" stroke="rgba(180, 213, 250, 1)"></path><path d="M1260 92.74 L1260 212.74" stroke-width="30" stroke="rgba(180, 213, 250, 1)"></path><path d="M1260 257.74 L1260 347.74" stroke-width="30" stroke="rgba(180, 213, 250, 1)"></path><path d="M1260 392.74 L1260 467.26" stroke-width="30" stroke="rgba(180, 213, 250, 1)"></path><path d="M1300 115.74 L1300 444.26" stroke-width="30" stroke="rgba(180, 213, 250, 1)"></path><path d="M1340 180.99 L1340 379.01" stroke-width="30" stroke="rgba(180, 213, 250, 1)"></path></g></g><defs><mask id="SvgjsMask1159"><rect width="1440" height="560" fill="#ffffff"></rect></mask></defs></svg>